# xmcd
#
# Track frame offsets:
#	150
#	10340
#	21189
#	33658
#
# Disc length: 570 seconds
#
# Revision: 0
# Processed by: cddbd v1.5.2PL0 Copyright (c) Steve Scherf et al.
# Submitted via: EZCDAudioConverter 2.0.5.1
#
DISCID=29023804
DTITLE=The Ventures - French Sixties EP Collection - CD 4 - Ventures Play The 
DTITLE=Country
DYEAR=2005
DGENRE=Instrumental
TTITLE0=Lovesick Blues
TTITLE1=You Are My Sunshine
TTITLE2=Wabash Cannonball
TTITLE3=Wildwood Flower
EXTD=
EXTT0=
EXTT1=
EXTT2=
EXTT3=
PLAYORDER=
